<?xml version="1.0" encoding="UTF-8" standalone="no"?>
<!DOCTYPE svg PUBLIC "-//W3C//DTD SVG 1.1//EN" "http://www.w3.org/Graphics/SVG/1.1/DTD/svg11.dtd">
<svg xmlns:xl="http://www.w3.org/1999/xlink" version="1.1"
     xmlns="http://www.w3.org/2000/svg" viewBox="20.12 27.85 89.07 77.17" width="89.07" height="77.17">
  <defs>
    <linearGradient x1="0" x2="1" id="Gradient" gradientUnits="userSpaceOnUse">
      <stop offset="0" stop-color="#b09868"/>
      <stop offset=".2237" stop-color="#d3b589"/>
      <stop offset="1" stop-color="#d3b589"/>
    </linearGradient>
    <linearGradient id="Obj_Gradient" xl:href="#Gradient" gradientTransform="translate(20.12 54.365) scale(89.07)"/>
  </defs>
  <g id="Canvas_1" fill-opacity="1" stroke="none" fill="none" stroke-opacity="1" stroke-dasharray="none">
    <title>Canvas 1</title>
    <g id="Canvas_1_Layer_1">
      <title>Layer 1</title>
      <g id="Group_3">
        <g id="Group_4">
          <g id="Graphic_8">
            <path
              d="M 61.01 48.39 C 59.61 48.39 58.29 48.13 57.07 47.61 C 55.85 47.09 54.77 46.36 53.84 45.42 C 52.91 44.48 52.18 43.39 51.66 42.15 C 51.14 40.91 50.88 39.57 50.88 38.13 C 50.88 36.69 51.14 35.35 51.66 34.11 C 52.18 32.87 52.91 31.78 53.84 30.84 C 54.77 29.9 55.85 29.17 57.07 28.65 C 58.29 28.13 59.61 27.87 61.01 27.87 C 62.41 27.87 63.73 28.13 64.95 28.65 C 66.17 29.17 67.25 29.9 68.18 30.84 C 69.11 31.78 69.83 32.87 70.36 34.11 C 70.88 35.35 71.14 36.69 71.14 38.13 C 71.14 39.57 70.88 40.91 70.36 42.15 C 69.84 43.39 69.11 44.48 68.18 45.42 C 67.25 46.36 66.17 47.09 64.95 47.61 C 63.73 48.13 62.42 48.39 61.01 48.39 Z M 61.01 47.17 C 62.24 47.17 63.39 46.94 64.47 46.47 C 65.54 46.01 66.48 45.37 67.27 44.55 C 68.07 43.74 68.69 42.78 69.13 41.68 C 69.58 40.58 69.8 39.4 69.8 38.12 C 69.8 36.85 69.58 35.66 69.13 34.56 C 68.68 33.46 68.06 32.5 67.27 31.69 C 66.47 30.88 65.54 30.24 64.47 29.77 C 63.4 29.31 62.25 29.07 61.01 29.07 C 59.78 29.07 58.63 29.3 57.55 29.77 C 56.48 30.23 55.54 30.87 54.75 31.69 C 53.95 32.51 53.33 33.46 52.89 34.56 C 52.44 35.66 52.22 36.85 52.22 38.12 C 52.22 39.39 52.44 40.58 52.89 41.68 C 53.34 42.78 53.96 43.74 54.75 44.55 C 55.55 45.37 56.48 46.01 57.55 46.47 C 58.63 46.93 59.78 47.17 61.01 47.17 Z"
              fill="#fefed4"/>
          </g>
          <g id="Graphic_7">
            <path d="M 72.23 48.08 L 72.23 28.17 L 73.54 28.17 L 73.54 46.86 L 80.9 46.86 L 80.9 48.08 Z"
                  fill="#fefed4"/>
          </g>
          <g id="Graphic_6">
            <path
              d="M 75.88 44.35 L 82.52 28.17 L 84.14 28.17 L 92.42 48.08 L 91 48.08 L 88.24 41.34 L 78.37 41.34 L 77.25 44.35 L 75.88 44.35 Z M 78.85 40.17 L 87.75 40.17 L 83.31 29.39 Z"
              fill="#fefed4"/>
          </g>
          <g id="Graphic_5">
            <path
              d="M 100.91 48.39 C 99.47 48.39 98.13 48.12 96.89 47.59 C 95.65 47.06 94.57 46.32 93.65 45.39 C 92.73 44.45 92.01 43.36 91.49 42.12 C 90.97 40.88 90.71 39.55 90.71 38.12 C 90.71 36.7 90.97 35.37 91.49 34.12 C 92.01 32.88 92.73 31.79 93.65 30.85 C 94.57 29.91 95.65 29.18 96.89 28.65 C 98.13 28.12 99.47 27.85 100.91 27.85 C 101.9 27.85 102.85 27.96 103.77 28.19 C 104.69 28.42 105.56 28.76 106.37 29.21 C 107.19 29.67 107.92 30.23 108.59 30.92 L 107.74 31.91 C 106.92 31.02 105.91 30.32 104.68 29.82 C 103.46 29.32 102.2 29.07 100.91 29.07 C 99.64 29.07 98.47 29.3 97.4 29.77 C 96.33 30.23 95.39 30.88 94.58 31.7 C 93.77 32.53 93.15 33.48 92.7 34.57 C 92.25 35.66 92.03 36.84 92.03 38.11 C 92.03 39.38 92.25 40.56 92.7 41.65 C 93.15 42.74 93.77 43.7 94.58 44.52 C 95.39 45.34 96.32 45.99 97.4 46.45 C 98.47 46.91 99.64 47.15 100.91 47.15 C 102.2 47.15 103.46 46.89 104.68 46.38 C 105.9 45.87 106.92 45.18 107.74 44.3 L 108.59 45.3 C 107.93 45.98 107.19 46.55 106.37 47.01 C 105.55 47.47 104.69 47.81 103.77 48.03 C 102.85 48.28 101.9 48.39 100.91 48.39 Z"
              fill="#fefed4"/>
          </g>
        </g>
      </g>
      <g id="Graphic_11">
        <path
          d="M 105.74 69.14 L 105.74 59.98 L 103.87 59.98 L 103.87 57.84 L 103.55 57.84 L 103.55 59.98 L 101.86 59.98 L 101.86 68.3 L 101.45 68.3 L 101.45 58.36 L 101.05 58.36 L 101.05 57.95 L 97.98 57.95 L 97.98 58.36 L 97.58 58.36 L 97.58 62.96 L 94.17 62.96 L 94.17 65.85 L 91 65.85 L 91 58.83 L 85.29 58.83 L 85.29 61.68 L 80.53 61.68 L 80.53 58.83 L 78.53 58.83 L 78.53 55.9 L 75.81 55.9 L 75.81 53.85 L 75.49 53.85 L 75.49 55.9 L 72.54 55.9 L 72.54 58.82 L 70.77 58.82 L 70.77 62.05 L 69 62.05 L 69 45.32 L 67.4 45.32 L 67.4 42.75 L 66.43 41.2 L 66.19 41.2 L 65.98 35.8 L 64.51 35.8 L 64.51 34.84 L 64.19 34.84 L 64.19 35.8 L 62.85 35.8 L 62.64 41.2 L 62.27 41.2 L 61.3 42.75 L 61.3 45.32 L 59.73 45.32 L 59.73 58.22 L 57.99 56.48 L 57.99 50.48 L 56.7 50.48 L 56.7 49.33 L 54.37 49.05 L 52.24 49.33 L 52.24 50.47 L 50.75 50.47 L 50.75 63.3 L 48.68 63.3 L 48.68 61.63 L 47.31 59.61 L 35.86 59.61 L 34.49 61.66 L 34.49 62.84 L 32.2 62.84 L 32.2 65.1 L 29.67 65.1 L 29.67 62 L 28.94 62 L 28.94 59.33 L 27.79 59.33 L 27.79 57.57 L 27.47 57.57 L 27.47 59.33 L 26.32 59.33 L 26.32 62 L 25.59 62 L 25.59 68.72 L 23.99 68.72 L 23.99 63.7 L 23.59 63.7 L 23.59 63.3 L 20.52 63.3 L 20.52 63.71 L 20.12 63.71 L 20.12 72.79 L 20.44 72.79 L 20.44 64.03 L 20.84 64.03 L 20.84 63.62 L 23.26 63.62 L 23.26 64.03 L 23.66 64.03 L 23.66 69.05 L 27.62 69.05 L 27.62 68.73 L 25.9 68.73 L 25.9 62.33 L 26.63 62.33 L 26.63 59.66 L 28.6 59.66 L 28.6 62.33 L 29.33 62.33 L 29.33 71.58 L 25.74 71.58 L 25.74 71.9 L 34.47 71.9 L 48.64 71.9 L 50.71 71.9 L 51.62 71.9 L 53.3 71.9 L 53.59 71.9 L 55.27 71.9 L 55.56 71.9 L 57.24 71.9 L 57.95 71.9 L 59.69 71.9 L 61.26 71.9 L 61.38 71.9 L 67.37 71.9 L 67.38 71.9 L 68.94 71.9 L 70.71 71.9 L 80.49 71.9 L 85.25 71.9 L 90.96 71.9 L 107.32 71.9 L 107.32 71.58 L 96.76 71.58 L 96.76 67.6 L 97.89 67.6 L 97.89 58.69 L 98.29 58.69 L 98.29 58.28 L 100.71 58.28 L 100.71 58.69 L 101.11 58.69 L 101.11 68.63 L 102.17 68.63 L 102.17 60.3 L 105.4 60.3 L 105.4 69.46 L 108.87 69.46 L 108.87 73.89 L 109.19 73.89 L 109.19 69.14 L 105.74 69.14 Z M 72.84 56.22 L 78.19 56.22 L 78.19 58.82 L 72.84 58.82 Z M 66.25 41.53 L 67.08 42.85 L 67.08 63.49 L 66.6 51.66 L 66.6 51.62 L 66.2 41.53 Z M 63.15 36.13 L 65.66 36.13 L 66.28 51.67 L 66.28 71.58 L 65.59 71.58 L 65.59 44.74 L 65.27 44.74 L 65.27 71.57 L 64.58 71.57 L 64.58 44.74 L 64.26 44.74 L 64.26 71.57 L 63.57 71.57 L 63.57 44.74 L 63.25 44.74 L 63.25 71.57 L 62.56 71.57 L 62.56 51.67 Z M 62.44 41.53 L 62.61 41.53 L 61.61 66.74 L 61.61 42.84 Z M 52.54 49.62 L 54.35 49.38 L 56.35 49.62 L 56.35 50.48 L 52.53 50.48 L 52.53 49.62 Z M 36.11 61.51 L 36.11 59.92 L 47.05 59.92 L 47.05 61.51 Z M 47.04 61.84 L 47.04 71.58 L 36.11 71.58 L 36.11 61.84 L 47.04 61.84 Z M 35.78 61.51 L 34.97 61.51 L 35.78 60.3 Z M 47.37 60.29 L 48.2 61.51 L 47.37 61.51 Z M 29.67 71.57 L 29.67 65.42 L 32.2 65.42 L 32.2 68.44 L 32.52 68.44 L 32.52 63.16 L 34.48 63.16 L 34.48 71.57 L 29.67 71.57 Z M 34.81 61.84 L 35.78 61.84 L 35.78 71.58 L 34.81 71.58 Z M 47.37 71.57 L 47.37 61.83 L 48.34 61.83 L 48.34 71.57 Z M 48.66 71.57 L 48.66 63.62 L 50.73 63.62 L 50.73 71.57 Z M 51.96 71.57 L 51.96 52.1 L 53 52.1 L 53 71.58 L 51.96 71.58 Z M 53.93 71.57 L 53.93 52.1 L 54.97 52.1 L 54.97 71.58 L 53.93 71.58 Z M 55.91 71.57 L 55.91 52.1 L 56.95 52.1 L 56.95 71.58 L 55.91 71.58 Z M 57.27 71.57 L 57.27 51.77 L 55.59 51.77 L 55.59 71.57 L 55.3 71.57 L 55.3 51.77 L 53.62 51.77 L 53.62 71.57 L 53.33 71.57 L 53.33 51.77 L 51.65 51.77 L 51.65 71.57 L 51.07 71.57 L 51.07 50.8 L 52.23 50.8 L 56.69 50.8 L 57.66 50.8 L 57.66 71.57 Z M 57.98 71.57 L 57.98 56.94 L 59.72 58.68 L 59.72 71.58 L 57.98 71.58 Z M 60.04 71.57 L 60.04 45.64 L 61.29 45.64 L 61.29 71.57 L 60.04 71.57 Z M 62.21 59.79 L 62.21 71.57 L 61.74 71.57 Z M 66.6 71.57 L 66.6 59.79 L 67.07 71.57 L 66.6 71.57 Z M 67.4 71.57 L 67.4 45.64 L 68.65 45.64 L 68.65 71.57 L 67.4 71.57 Z M 68.97 71.57 L 68.97 62.37 L 70.74 62.37 L 70.74 71.57 Z M 71.06 71.57 L 71.06 59.14 L 72.51 59.14 L 78.51 59.14 L 80.19 59.14 L 80.19 71.57 L 71.06 71.57 Z M 80.52 71.57 L 80.52 62 L 85.28 62 L 85.28 71.58 L 80.52 71.58 Z M 85.6 71.57 L 85.6 59.14 L 90.66 59.14 L 90.66 71.57 L 85.6 71.57 Z M 96.44 67.27 L 96.44 71.58 L 90.99 71.58 L 90.99 66.17 L 96.03 66.17 L 96.03 65.85 L 94.49 65.85 L 94.49 63.28 L 97.57 63.28 L 97.57 67.27 L 96.44 67.27 Z M 65.59 36.57 L 63.23 36.57 L 63.23 43.19 L 65.59 43.19 Z M 65.26 38.14 L 64.57 38.14 L 64.57 36.89 L 65.26 36.89 Z M 64.25 40.04 L 64.25 41.29 L 63.56 41.29 L 63.56 40.04 Z M 63.55 39.72 L 63.55 38.47 L 64.24 38.47 L 64.24 39.72 Z M 64.57 40.04 L 65.26 40.04 L 65.26 41.29 L 64.57 41.29 Z M 64.57 39.72 L 64.57 38.47 L 65.26 38.47 L 65.26 39.72 Z M 64.25 36.89 L 64.25 38.14 L 63.56 38.14 L 63.56 36.89 Z M 63.55 41.61 L 64.24 41.61 L 64.24 42.86 L 63.55 42.86 L 63.55 41.61 Z M 64.57 42.87 L 64.57 41.62 L 65.26 41.62 L 65.26 42.87 Z M 86.49 60.8 L 86.81 60.8 L 86.81 63 L 86.49 63 Z M 87.97 60.8 L 88.29 60.8 L 88.29 63 L 87.97 63 Z M 89.45 60.8 L 89.77 60.8 L 89.77 63 L 89.45 63 Z M 86.49 64.16 L 86.81 64.16 L 86.81 66.36 L 86.49 66.36 Z M 87.97 64.16 L 88.29 64.16 L 88.29 66.36 L 87.97 66.36 Z M 89.45 64.16 L 89.77 64.16 L 89.77 66.36 L 89.45 66.36 Z M 86.49 67.52 L 86.81 67.52 L 86.81 69.72 L 86.49 69.72 Z M 87.97 67.52 L 88.29 67.52 L 88.29 69.72 L 87.97 69.72 Z M 89.45 67.52 L 89.77 67.52 L 89.77 69.72 L 89.45 69.72 Z M 46.37 63.18 L 36.83 63.18 L 36.83 62.83 L 46.37 62.83 Z M 46.37 64.45 L 36.83 64.45 L 36.83 64.1 L 46.37 64.1 Z M 46.37 65.73 L 36.83 65.73 L 36.83 65.38 L 46.37 65.38 Z M 46.37 67 L 36.83 67 L 36.83 66.65 L 46.37 66.65 Z M 46.37 68.27 L 36.83 68.27 L 36.83 67.92 L 46.37 67.92 Z M 46.37 69.55 L 36.83 69.55 L 36.83 69.2 L 46.37 69.2 Z M 46.37 70.82 L 36.83 70.82 L 36.83 70.47 L 46.37 70.47 Z M 60.8 48.15 L 60.48 48.15 L 60.48 46.6 L 60.8 46.6 Z M 68.16 48.15 L 67.84 48.15 L 67.84 46.6 L 68.16 46.6 Z M 60.8 51.36 L 60.48 51.36 L 60.48 49.81 L 60.8 49.81 Z M 68.16 51.36 L 67.84 51.36 L 67.84 49.81 L 68.16 49.81 Z M 60.8 54.58 L 60.48 54.58 L 60.48 53.03 L 60.8 53.03 Z M 68.16 54.58 L 67.84 54.58 L 67.84 53.03 L 68.16 53.03 Z M 60.8 57.8 L 60.48 57.8 L 60.48 56.25 L 60.8 56.25 Z M 68.16 57.8 L 67.84 57.8 L 67.84 56.25 L 68.16 56.25 Z M 60.8 61.01 L 60.48 61.01 L 60.48 59.46 L 60.8 59.46 Z M 68.16 61.01 L 67.84 61.01 L 67.84 59.46 L 68.16 59.46 Z M 60.8 64.23 L 60.48 64.23 L 60.48 62.68 L 60.8 62.68 Z M 68.16 64.23 L 67.84 64.23 L 67.84 62.68 L 68.16 62.68 Z M 60.8 67.45 L 60.48 67.45 L 60.48 65.9 L 60.8 65.9 Z M 68.16 67.45 L 67.84 67.45 L 67.84 65.9 L 68.16 65.9 Z M 60.8 70.66 L 60.48 70.66 L 60.48 69.11 L 60.8 69.11 Z M 68.16 70.66 L 67.84 70.66 L 67.84 69.11 L 68.16 69.11 Z"
          fill="url(#Obj_Gradient)"/>
      </g>
      <g id="Group_12">
        <g id="Graphic_14">
          <path
            d="M 33.81 28.68 C 35.08 28.68 36.35 28.68 37.62 28.68 C 37.66 28.69 37.7 28.7 37.75 28.7 C 38.19 28.71 38.64 28.71 39.08 28.72 C 39.77 28.74 40.47 28.75 41.16 28.77 C 42.22 28.8 43.28 28.85 44.34 28.94 C 44.82 28.98 45.29 29.02 45.76 29.11 C 45.94 29.14 46.12 29.2 46.29 29.25 C 46.38 29.28 46.43 29.34 46.44 29.44 C 46.48 29.85 46.54 30.26 46.58 30.67 C 46.63 31.18 46.66 31.69 46.66 32.2 C 46.66 32.25 46.67 32.29 46.68 32.34 C 46.68 33.09 46.68 33.85 46.68 34.6 C 46.67 34.65 46.66 34.7 46.66 34.75 C 46.66 35.43 46.6 36.1 46.54 36.77 C 46.48 37.48 46.39 38.18 46.28 38.88 C 46.1 40.02 45.87 41.16 45.57 42.27 C 45.04 44.21 44.33 46.07 43.36 47.83 C 42.3 49.78 40.98 51.52 39.36 53.05 C 38.21 54.14 36.94 55.07 35.58 55.87 C 35.54 55.89 35.51 55.92 35.47 55.95 C 35.45 55.95 35.44 55.95 35.42 55.95 C 35.36 55.92 35.31 55.88 35.25 55.85 C 33.38 54.9 31.71 53.68 30.25 52.17 C 29 50.88 27.95 49.44 27.07 47.88 C 26.13 46.22 25.41 44.46 24.85 42.64 C 24.4 41.16 24.06 39.66 23.82 38.13 C 23.72 37.49 23.64 36.86 23.58 36.22 C 23.52 35.64 23.48 35.05 23.44 34.46 C 23.42 34.15 23.41 33.85 23.39 33.54 C 23.39 33.5 23.37 33.46 23.36 33.42 C 23.36 32.93 23.36 32.45 23.36 31.96 C 23.37 31.92 23.39 31.87 23.39 31.83 C 23.41 31.44 23.43 31.05 23.46 30.67 C 23.49 30.33 23.54 29.98 23.6 29.64 C 23.66 29.31 23.69 29.28 24.02 29.21 C 24.37 29.14 24.73 29.08 25.09 29.05 C 25.68 28.99 26.28 28.95 26.87 28.91 C 27.52 28.87 28.18 28.84 28.83 28.82 C 29.62 28.79 30.41 28.77 31.21 28.75 C 32.03 28.73 32.86 28.72 33.68 28.71 C 33.74 28.7 33.77 28.68 33.81 28.68 Z"
            fill="#e11f26"/>
        </g>
        <g id="Graphic_13">
          <path
            d="M 41.7 41.04 C 41.7 41 41.7 40.96 41.7 40.92 C 41.69 40.29 41.69 39.66 41.67 39.04 C 41.66 38.75 41.63 38.45 41.61 38.16 C 41.61 38.13 41.6 38.1 41.59 38.07 C 41.38 37.54 41.04 37.14 40.47 37.01 C 40.01 36.9 39.57 36.98 39.15 37.2 C 39.11 37.22 39.07 37.25 39.04 37.29 C 38.65 37.74 38.43 38.27 38.38 38.87 C 38.33 39.48 38.45 40.06 38.65 40.62 C 38.7 40.75 38.75 40.88 38.8 41 C 38.96 41.41 39.22 41.75 39.54 42.05 C 39.68 42.19 39.83 42.32 39.98 42.45 C 40.02 42.49 40.08 42.51 40.13 42.53 C 40.7 42.71 41.26 42.68 41.81 42.47 C 42.24 42.31 42.62 42.07 42.98 41.8 C 43.32 41.55 43.64 41.27 43.95 40.98 C 43.98 40.95 44.01 40.93 44.05 40.89 C 44.25 41.12 44.44 41.35 44.64 41.59 C 44.61 41.61 44.59 41.63 44.57 41.64 C 43.72 42.15 42.84 42.58 41.89 42.85 C 41.42 42.99 40.94 43.07 40.45 43.05 C 40.17 43.04 39.9 42.97 39.64 42.85 C 39.28 42.69 38.96 42.49 38.69 42.2 C 38.5 42 38.34 41.79 38.2 41.55 C 38.02 41.25 37.86 40.94 37.69 40.63 C 37.66 40.57 37.61 40.53 37.54 40.51 C 37.2 40.41 36.85 40.34 36.51 40.29 C 36.19 40.24 35.87 40.19 35.54 40.15 C 35.51 40.15 35.49 40.15 35.46 40.15 C 35.42 40.25 35.41 40.4 35.43 40.54 C 35.69 40.58 35.94 40.62 36.2 40.66 C 36.45 40.7 36.71 40.73 36.96 40.78 C 36.96 40.79 36.96 40.8 36.96 40.81 C 36.44 40.9 35.91 40.99 35.37 41.08 C 35.36 41.13 35.35 41.18 35.34 41.24 C 35.2 42.19 35.17 43.15 35.14 44.1 C 35.12 44.72 35.08 45.34 35.05 45.96 C 35.04 46.07 35.03 46.18 35.02 46.29 C 35.01 46.35 35.01 46.41 35.01 46.49 C 35.57 46.41 36.12 46.33 36.68 46.24 C 36.69 46.16 36.7 46.07 36.71 45.99 C 36.77 45.61 36.95 45.29 37.21 45.03 C 37.54 44.7 37.94 44.48 38.38 44.33 C 38.39 44.33 38.39 44.33 38.42 44.33 C 38.39 44.36 38.37 44.38 38.34 44.4 C 38.14 44.57 37.94 44.73 37.75 44.9 C 37.53 45.09 37.37 45.33 37.24 45.59 C 37.15 45.77 37.13 46.12 37.37 46.32 C 37.46 46.39 37.55 46.45 37.65 46.51 C 37.84 46.61 38.04 46.71 38.24 46.81 C 38.28 46.83 38.31 46.85 38.35 46.89 C 38.33 46.89 38.3 46.89 38.28 46.89 C 37.77 46.78 37.26 46.69 36.74 46.68 C 36.41 46.67 36.07 46.69 35.74 46.7 C 35.6 46.71 35.47 46.73 35.33 46.74 C 35.25 46.75 35.21 46.78 35.18 46.86 C 34.96 47.52 34.81 48.2 34.83 48.9 C 34.83 48.92 34.83 48.95 34.81 48.97 C 34.8 48.92 34.79 48.87 34.78 48.82 C 34.72 48.52 34.65 48.23 34.55 47.94 C 34.35 47.35 33.96 46.94 33.39 46.7 C 33.02 46.54 32.63 46.44 32.23 46.35 C 32.2 46.34 32.16 46.33 32.12 46.32 C 32.29 46.24 32.97 46.19 33.47 46.27 C 33.92 46.34 34.34 46.5 34.74 46.74 C 34.74 46.7 34.74 46.68 34.74 46.65 C 34.7 46.28 34.66 45.92 34.63 45.55 C 34.56 44.59 34.58 43.63 34.59 42.67 C 34.59 42.14 34.57 41.62 34.56 41.09 C 34.56 41.01 34.52 40.98 34.46 40.95 C 34.11 40.8 33.76 40.64 33.41 40.48 C 33.38 40.47 33.34 40.45 33.31 40.43 C 33.31 40.42 33.31 40.41 33.32 40.4 C 33.7 40.39 34.07 40.37 34.45 40.36 C 34.45 40.35 34.45 40.34 34.45 40.33 C 33.76 40.15 33.06 40 32.32 40.1 C 32.29 40.04 32.26 39.99 32.24 39.92 C 32.12 39.56 31.99 39.21 31.89 38.85 C 31.68 38.12 31.49 37.39 31.28 36.66 C 31.22 36.44 31.14 36.23 31.06 36.01 C 30.99 35.8 30.85 35.62 30.69 35.48 C 30.4 35.22 30.08 35 29.75 34.79 C 29.71 34.77 29.67 34.74 29.62 34.73 C 29.65 34.76 29.68 34.79 29.71 34.81 C 30 35.07 30.26 35.36 30.47 35.69 C 30.62 35.92 30.74 36.17 30.82 36.43 C 30.93 36.79 31.05 37.14 31.16 37.49 C 31.31 38.02 31.41 38.56 31.43 39.11 C 31.44 39.45 31.41 39.78 31.29 40.11 C 31.25 40.21 31.21 40.31 31.16 40.42 C 31.79 40.52 32.43 40.55 33.06 40.59 C 33.04 40.67 32.72 41.09 32.52 41.28 C 32.49 41.27 32.44 41.26 32.41 41.25 C 31.82 41.04 31.21 40.96 30.58 41 C 29.95 41.04 29.36 41.23 28.81 41.51 C 28.15 41.85 27.58 42.3 27.06 42.81 C 26.95 42.92 26.82 43.03 26.71 43.13 C 26.71 43.13 26.71 43.11 26.72 43.09 C 26.88 42.71 27.04 42.32 27.21 41.94 C 27.23 41.89 27.27 41.85 27.32 41.82 C 28.03 41.33 28.79 40.95 29.62 40.7 C 29.86 40.63 30.1 40.54 30.34 40.47 C 30.43 40.44 30.48 40.39 30.53 40.31 C 30.74 39.89 30.88 39.45 30.94 38.98 C 31.02 38.33 30.96 37.69 30.75 37.07 C 30.63 36.72 30.46 36.39 30.23 36.1 C 30.2 36.07 30.18 36.04 30.14 36 C 30.1 36.1 30.06 36.2 30.01 36.28 C 29.86 36.53 29.7 36.77 29.54 37.01 C 29.49 37.08 29.48 37.14 29.52 37.22 C 29.6 37.38 29.66 37.54 29.73 37.71 C 29.75 37.75 29.76 37.78 29.78 37.83 C 29.74 37.83 29.72 37.83 29.69 37.83 C 29.49 37.79 29.3 37.75 29.1 37.72 C 29.02 37.71 28.98 37.67 28.95 37.59 C 28.69 36.89 28.65 36.17 28.8 35.44 C 28.89 35.02 29.03 34.62 29.19 34.22 C 29.27 34.02 29.34 33.81 29.42 33.6 C 29.43 33.58 29.44 33.56 29.45 33.53 C 29.47 33.56 29.48 33.58 29.49 33.6 C 29.6 33.85 29.76 34.07 29.96 34.25 C 30.16 34.43 30.38 34.61 30.59 34.77 C 30.89 35.01 31.2 35.24 31.47 35.51 C 31.99 36.02 32.31 36.63 32.41 37.35 C 32.46 37.72 32.5 38.09 32.55 38.46 C 32.56 38.52 32.57 38.58 32.58 38.64 C 33.15 38.84 33.71 39.03 34.28 39.23 C 34.28 39.22 34.29 39.22 34.29 39.21 C 34 38.81 33.71 38.41 33.4 37.99 C 33.52 38.01 33.58 38.08 33.66 38.12 C 33.74 38.16 33.81 38.21 33.89 38.26 C 33.97 38.31 34.04 38.35 34.12 38.4 C 34.2 38.45 34.28 38.49 34.35 38.54 C 34.43 38.59 34.5 38.63 34.59 38.68 C 34.59 38.65 34.6 38.63 34.6 38.61 C 34.61 38.14 34.61 37.67 34.62 37.2 C 34.63 36.68 34.62 36.16 34.49 35.66 C 34.44 35.48 34.36 35.31 34.3 35.14 C 34.27 35.07 34.22 35.03 34.15 35 C 34 34.97 33.81 34.97 33.63 35 C 33.41 35.04 33.21 35.12 33.01 35.21 C 32.78 35.32 32.55 35.44 32.32 35.56 C 32.23 35.6 32.14 35.64 32.04 35.68 C 32.04 35.58 32.33 34.83 32.45 34.58 C 32.48 34.58 32.51 34.58 32.55 34.58 C 32.94 34.58 33.33 34.59 33.72 34.6 C 34 34.6 34.29 34.61 34.57 34.61 C 34.63 34.61 34.68 34.6 34.73 34.56 C 35.25 34.18 35.5 33.67 35.46 33.03 C 35.45 32.93 35.44 32.82 35.42 32.69 C 35.01 33.05 34.68 33.44 34.29 33.79 C 34.2 33.45 34.11 33.13 34.02 32.79 C 34.06 32.76 34.1 32.73 34.15 32.7 C 34.35 32.6 34.55 32.49 34.75 32.39 C 34.89 32.32 35.03 32.26 35.17 32.18 C 35.23 32.15 35.29 32.14 35.36 32.16 C 35.77 32.25 36.03 32.54 36.08 32.97 C 36.13 33.46 36 33.9 35.77 34.32 C 35.75 34.36 35.73 34.4 35.71 34.43 C 35.71 34.43 35.71 34.44 35.72 34.45 C 35.81 34.45 35.91 34.46 36.01 34.46 C 36.3 34.49 36.57 34.59 36.82 34.72 C 37.03 34.83 37.23 34.95 37.44 35.05 C 37.66 35.16 37.89 35.28 38.12 35.37 C 38.41 35.49 38.71 35.52 39.01 35.43 C 39.08 35.41 39.16 35.38 39.23 35.35 C 39.25 35.34 39.28 35.31 39.28 35.28 C 39.28 35.17 39.28 35.07 39.26 34.96 C 39.24 34.83 39.16 34.75 39.04 34.73 C 38.92 34.71 38.79 34.69 38.67 34.68 C 38.43 34.66 38.43 34.67 38.28 34.48 C 37.82 33.91 37.32 33.37 36.82 32.84 C 36.39 32.38 35.96 31.92 35.54 31.45 C 35.29 31.17 35.06 30.87 34.83 30.57 C 34.74 30.46 34.68 30.33 34.6 30.2 C 34.66 30.17 34.69 30.2 34.72 30.22 C 34.97 30.35 35.2 30.5 35.42 30.67 C 36.08 31.18 36.68 31.76 37.25 32.36 C 38 33.15 38.78 33.9 39.6 34.62 C 39.62 34.64 39.65 34.66 39.69 34.69 C 39.87 34.53 40.05 34.37 40.25 34.2 C 40.24 34.27 40.24 34.3 40.24 34.34 C 40.19 34.61 40.14 34.87 40.09 35.14 C 40.08 35.2 40.09 35.25 40.12 35.3 C 40.26 35.52 40.39 35.74 40.53 35.96 C 40.54 35.98 40.55 36.01 40.55 36.04 C 40.52 36.02 40.49 36 40.45 35.98 C 40.22 35.82 39.99 35.66 39.77 35.5 C 39.7 35.45 39.65 35.45 39.58 35.48 C 39.41 35.56 39.25 35.63 39.08 35.71 C 38.92 35.78 38.76 35.85 38.58 35.87 C 38.41 35.89 38.25 35.86 38.1 35.8 C 37.67 35.61 37.24 35.43 36.8 35.25 C 36.56 35.15 36.32 35.07 36.06 35.01 C 36.05 35.04 36.04 35.07 36.03 35.1 C 35.9 35.75 35.78 36.4 35.71 37.06 C 35.65 37.57 35.62 38.08 35.63 38.6 C 35.63 38.62 35.63 38.65 35.64 38.68 C 36.1 38.38 36.55 38.09 37 37.79 C 37.01 37.8 37.01 37.81 37.02 37.81 C 36.81 38.08 36.58 38.33 36.36 38.57 C 36.13 38.82 35.89 39.06 35.6 39.29 C 35.72 39.3 35.83 39.28 35.93 39.26 C 36.23 39.22 36.53 39.16 36.82 39.12 C 37 39.09 37.19 39.1 37.37 39.14 C 37.66 39.2 37.89 39.35 38.06 39.59 C 38.08 39.62 38.11 39.65 38.13 39.68 C 38.13 39.68 38.14 39.68 38.15 39.69 C 38.13 39.56 38.11 39.43 38.1 39.3 C 38.05 38.55 38.2 37.86 38.62 37.23 C 38.81 36.95 39.05 36.75 39.36 36.61 C 39.73 36.44 40.12 36.34 40.53 36.35 C 40.99 36.37 41.37 36.55 41.67 36.9 C 41.92 37.19 42.07 37.54 42.18 37.91 C 42.23 38.08 42.24 38.25 42.25 38.42 C 42.27 38.83 42.22 39.24 42.15 39.65 C 42.07 40.08 41.96 40.5 41.82 40.91 C 41.81 40.94 41.79 40.98 41.78 41.01 C 41.73 41.03 41.72 41.03 41.7 41.04 Z"
            fill="white"/>
        </g>
      </g>
      <g id="Group_15">
        <g id="Graphic_47">
          <path
            d="M 53.55 84.77 C 53.01 84.77 52.5 84.67 52.02 84.47 C 51.54 84.27 51.13 83.98 50.77 83.62 C 50.41 83.25 50.13 82.83 49.93 82.35 C 49.73 81.87 49.63 81.35 49.63 80.79 C 49.63 80.23 49.73 79.71 49.93 79.23 C 50.13 78.75 50.41 78.32 50.77 77.96 C 51.13 77.59 51.55 77.31 52.02 77.11 C 52.49 76.91 53 76.81 53.55 76.81 C 54.1 76.81 54.6 76.91 55.08 77.11 C 55.55 77.31 55.97 77.6 56.33 77.96 C 56.69 78.32 56.97 78.75 57.18 79.23 C 57.38 79.71 57.48 80.23 57.48 80.79 C 57.48 81.35 57.38 81.87 57.18 82.35 C 56.98 82.83 56.7 83.26 56.33 83.62 C 55.97 83.98 55.55 84.27 55.08 84.47 C 54.6 84.67 54.09 84.77 53.55 84.77 Z M 53.55 84.3 C 54.03 84.3 54.48 84.21 54.89 84.03 C 55.3 83.85 55.67 83.6 55.98 83.28 C 56.29 82.96 56.53 82.59 56.7 82.16 C 56.87 81.73 56.96 81.27 56.96 80.78 C 56.96 80.29 56.87 79.83 56.7 79.4 C 56.53 78.97 56.29 78.6 55.98 78.28 C 55.67 77.96 55.31 77.72 54.89 77.53 C 54.47 77.34 54.03 77.26 53.55 77.26 C 53.07 77.26 52.62 77.35 52.21 77.53 C 51.8 77.71 51.43 77.96 51.12 78.28 C 50.81 78.6 50.57 78.97 50.4 79.4 C 50.23 79.83 50.14 80.29 50.14 80.78 C 50.14 81.27 50.23 81.73 50.4 82.16 C 50.57 82.59 50.81 82.96 51.12 83.28 C 51.43 83.6 51.79 83.84 52.21 84.03 C 52.63 84.22 53.07 84.3 53.55 84.3 Z"
            fill="#baa071"/>
        </g>
        <g id="Graphic_46">
          <path
            d="M 58.65 84.65 L 58.65 79.24 L 59.21 79.24 L 61.23 83.5 L 63.24 79.24 L 63.8 79.24 L 63.8 84.65 L 63.44 84.65 L 63.44 79.58 L 61.23 84.27 L 59 79.6 L 59 84.66 L 58.65 84.66 Z"
            fill="#baa071"/>
        </g>
        <g id="Graphic_45">
          <path
            d="M 64.49 84.65 L 66.75 79.24 L 67.19 79.24 L 69.44 84.65 L 69.05 84.65 L 68.3 82.82 L 65.62 82.82 L 64.86 84.65 Z M 65.75 82.5 L 68.17 82.5 L 66.96 79.57 Z"
            fill="#baa071"/>
        </g>
        <g id="Graphic_44">
          <path
            d="M 70.14 84.65 L 70.14 79.24 L 70.5 79.24 L 70.5 81.76 L 73.95 81.76 L 73.95 79.24 L 74.31 79.24 L 74.31 84.65 L 73.95 84.65 L 73.95 82.09 L 70.5 82.09 L 70.5 84.65 Z"
            fill="#baa071"/>
        </g>
        <g id="Graphic_43">
          <path
            d="M 75 84.65 L 77.26 79.24 L 77.7 79.24 L 79.95 84.65 L 79.56 84.65 L 78.81 82.82 L 76.13 82.82 L 75.37 84.65 Z M 76.26 82.5 L 78.68 82.5 L 77.47 79.57 Z"
            fill="#baa071"/>
        </g>
        <g id="Graphic_42">
          <path d="M 20.64 94.78 L 20.64 87.05 L 21.15 87.05 L 21.15 94.31 L 25.92 94.31 L 25.92 94.78 Z"
                fill="#baa071"/>
        </g>
        <g id="Graphic_41">
          <rect x="26.91" y="89.37" width=".36" height="5.41" fill="#baa071"/>
        </g>
        <g id="Graphic_40">
          <path
            d="M 30.05 94.78 L 30.05 89.7 L 28.04 89.7 L 28.04 89.37 L 32.42 89.37 L 32.42 89.7 L 30.4 89.7 L 30.4 94.78 Z"
            fill="#baa071"/>
        </g>
        <g id="Graphic_39">
          <path
            d="M 33.19 94.78 L 33.19 89.37 L 33.55 89.37 L 33.55 91.89 L 37 91.89 L 37 89.37 L 37.36 89.37 L 37.36 94.78 L 37 94.78 L 37 92.22 L 33.55 92.22 L 33.55 94.78 Z"
            fill="#baa071"/>
        </g>
        <g id="Graphic_38">
          <path
            d="M 40.67 94.86 C 40.24 94.86 39.87 94.77 39.54 94.59 C 39.22 94.41 38.96 94.14 38.78 93.79 C 38.6 93.44 38.51 93.01 38.51 92.51 L 38.51 89.36 L 38.87 89.36 L 38.87 92.51 C 38.87 92.94 38.95 93.3 39.1 93.6 C 39.25 93.9 39.47 94.13 39.74 94.29 C 40.01 94.45 40.32 94.53 40.67 94.53 C 41.02 94.53 41.33 94.45 41.6 94.29 C 41.87 94.13 42.08 93.9 42.24 93.6 C 42.4 93.3 42.47 92.93 42.47 92.51 L 42.47 89.36 L 42.83 89.36 L 42.83 92.51 C 42.83 93.01 42.74 93.44 42.56 93.79 C 42.38 94.14 42.13 94.41 41.8 94.59 C 41.48 94.77 41.1 94.86 40.67 94.86 Z"
            fill="#baa071"/>
        </g>
        <g id="Graphic_37">
          <path
            d="M 43.18 94.78 L 45.44 89.37 L 45.88 89.37 L 48.13 94.78 L 47.74 94.78 L 47 92.95 L 44.32 92.95 L 43.56 94.78 Z M 44.44 92.63 L 46.86 92.63 L 45.65 89.7 Z"
            fill="#baa071"/>
        </g>
        <g id="Graphic_36">
          <path
            d="M 48.83 94.78 L 48.83 89.37 L 49.22 89.37 L 52.71 94.16 L 52.71 89.37 L 53.07 89.37 L 53.07 94.78 L 52.76 94.78 L 49.19 89.89 L 49.19 94.78 Z"
            fill="#baa071"/>
        </g>
        <g id="Graphic_35">
          <rect x="54.35" y="89.37" width=".36" height="5.41" fill="#baa071"/>
        </g>
        <g id="Graphic_34">
          <path
            d="M 55.41 94.78 L 57.67 89.37 L 58.11 89.37 L 60.36 94.78 L 59.97 94.78 L 59.22 92.95 L 56.54 92.95 L 55.78 94.78 Z M 56.67 92.63 L 59.09 92.63 L 57.88 89.7 Z"
            fill="#baa071"/>
        </g>
        <g id="Graphic_33">
          <path
            d="M 61.05 94.78 L 61.05 89.37 L 61.44 89.37 L 64.93 94.16 L 64.93 89.37 L 65.29 89.37 L 65.29 94.78 L 64.98 94.78 L 61.41 89.89 L 61.41 94.78 Z"
            fill="#baa071"/>
        </g>
        <g id="Graphic_32">
          <path
            d="M 68.46 94.78 L 71.69 87.05 L 72.32 87.05 L 75.53 94.78 L 74.98 94.78 L 73.91 92.16 L 70.08 92.16 L 69 94.78 Z M 70.26 91.71 L 73.72 91.71 L 72 87.52 Z"
            fill="#baa071"/>
        </g>
        <g id="Graphic_31">
          <path
            d="M 76.25 94.78 L 76.25 89.37 L 76.81 89.37 L 78.83 93.63 L 80.84 89.37 L 81.4 89.37 L 81.4 94.78 L 81.04 94.78 L 81.04 89.71 L 78.83 94.4 L 76.61 89.73 L 76.61 94.79 L 76.25 94.79 Z"
            fill="#baa071"/>
        </g>
        <g id="Graphic_30">
          <path
            d="M 82.67 94.78 L 82.67 89.37 L 86.41 89.37 L 86.41 89.7 L 83.02 89.7 L 83.02 91.88 L 85.23 91.88 L 85.23 92.21 L 83.02 92.21 L 83.02 94.44 L 86.44 94.44 L 86.44 94.77 L 82.67 94.77 Z"
            fill="#baa071"/>
        </g>
        <g id="Graphic_29">
          <path
            d="M 87.33 94.78 L 87.33 89.37 L 89.51 89.37 C 89.88 89.37 90.19 89.44 90.44 89.57 C 90.69 89.7 90.89 89.88 91.02 90.1 C 91.15 90.32 91.22 90.58 91.22 90.87 C 91.22 91.22 91.12 91.53 90.92 91.79 C 90.72 92.05 90.43 92.23 90.05 92.32 L 91.25 94.79 L 90.86 94.79 L 89.69 92.38 L 87.69 92.38 L 87.69 94.79 L 87.33 94.79 Z M 87.68 92.03 L 89.48 92.03 C 89.92 92.03 90.26 91.92 90.5 91.69 C 90.74 91.46 90.85 91.19 90.85 90.86 C 90.85 90.53 90.73 90.25 90.5 90.03 C 90.27 89.81 89.93 89.7 89.48 89.7 L 87.68 89.7 Z"
            fill="#baa071"/>
        </g>
        <g id="Graphic_28">
          <rect x="92.19" y="89.37" width=".36" height="5.41" fill="#baa071"/>
        </g>
        <g id="Graphic_27">
          <path
            d="M 96.33 94.86 C 95.94 94.86 95.57 94.79 95.24 94.64 C 94.9 94.5 94.61 94.3 94.36 94.04 C 94.11 93.78 93.91 93.49 93.77 93.15 C 93.63 92.81 93.56 92.45 93.56 92.06 C 93.56 91.67 93.63 91.31 93.77 90.97 C 93.91 90.63 94.11 90.34 94.36 90.08 C 94.61 89.83 94.9 89.63 95.24 89.48 C 95.58 89.33 95.94 89.26 96.33 89.26 C 96.6 89.26 96.86 89.29 97.11 89.35 C 97.36 89.41 97.6 89.5 97.82 89.63 C 98.04 89.76 98.24 89.91 98.42 90.09 L 98.19 90.36 C 97.97 90.12 97.69 89.93 97.36 89.79 C 97.03 89.65 96.69 89.58 96.34 89.58 C 96 89.58 95.68 89.64 95.38 89.77 C 95.09 89.9 94.83 90.07 94.62 90.3 C 94.4 90.52 94.23 90.78 94.11 91.08 C 93.99 91.38 93.93 91.7 93.93 92.04 C 93.93 92.39 93.99 92.71 94.11 93 C 94.23 93.3 94.4 93.56 94.62 93.78 C 94.84 94 95.09 94.18 95.38 94.31 C 95.67 94.44 95.99 94.5 96.34 94.5 C 96.69 94.5 97.03 94.43 97.36 94.29 C 97.69 94.15 97.97 93.96 98.19 93.73 L 98.42 94 C 98.24 94.19 98.04 94.34 97.82 94.46 C 97.6 94.58 97.36 94.68 97.11 94.74 C 96.86 94.8 96.6 94.86 96.33 94.86 Z"
            fill="#baa071"/>
        </g>
        <g id="Graphic_26">
          <path
            d="M 98.84 94.78 L 101.1 89.37 L 101.54 89.37 L 103.79 94.78 L 103.4 94.78 L 102.65 92.95 L 99.97 92.95 L 99.21 94.78 Z M 100.11 92.63 L 102.53 92.63 L 101.32 89.7 Z"
            fill="#baa071"/>
        </g>
        <g id="Graphic_25">
          <path
            d="M 104.49 94.78 L 104.49 89.37 L 104.88 89.37 L 108.37 94.16 L 108.37 89.37 L 108.73 89.37 L 108.73 94.78 L 108.42 94.78 L 104.85 89.89 L 104.85 94.78 Z"
            fill="#baa071"/>
        </g>
        <g id="Graphic_24">
          <path
            d="M 43.28 105.02 C 42.72 105.02 42.2 104.92 41.72 104.71 C 41.24 104.5 40.82 104.22 40.46 103.85 C 40.1 103.49 39.82 103.06 39.62 102.58 C 39.42 102.1 39.32 101.58 39.32 101.03 C 39.32 100.48 39.42 99.96 39.62 99.48 C 39.82 99 40.1 98.57 40.46 98.21 C 40.82 97.85 41.24 97.56 41.72 97.35 C 42.2 97.14 42.72 97.04 43.28 97.04 C 43.66 97.04 44.03 97.08 44.39 97.17 C 44.75 97.26 45.08 97.39 45.4 97.57 C 45.72 97.75 46 97.97 46.26 98.23 L 45.93 98.62 C 45.61 98.27 45.22 98 44.74 97.81 C 44.26 97.61 43.78 97.52 43.28 97.52 C 42.79 97.52 42.33 97.61 41.92 97.79 C 41.51 97.97 41.14 98.22 40.83 98.54 C 40.52 98.86 40.27 99.23 40.1 99.66 C 39.93 100.08 39.84 100.54 39.84 101.04 C 39.84 101.53 39.93 101.99 40.1 102.42 C 40.27 102.84 40.52 103.21 40.83 103.54 C 41.14 103.86 41.51 104.11 41.92 104.29 C 42.33 104.47 42.79 104.56 43.28 104.56 C 43.78 104.56 44.27 104.46 44.74 104.26 C 45.21 104.06 45.61 103.79 45.93 103.45 L 46.26 103.84 C 46 104.1 45.72 104.33 45.4 104.5 C 45.08 104.68 44.75 104.81 44.39 104.9 C 44.03 104.98 43.66 105.02 43.28 105.02 Z"
            fill="#baa071"/>
        </g>
        <g id="Graphic_23">
          <path
            d="M 49.9 104.99 C 49.52 104.99 49.16 104.92 48.83 104.78 C 48.5 104.64 48.21 104.44 47.95 104.19 C 47.7 103.94 47.5 103.64 47.36 103.3 C 47.22 102.96 47.15 102.6 47.15 102.21 C 47.15 101.82 47.22 101.45 47.36 101.12 C 47.5 100.79 47.7 100.49 47.95 100.23 C 48.2 99.98 48.5 99.78 48.83 99.64 C 49.16 99.5 49.52 99.43 49.9 99.43 C 50.28 99.43 50.64 99.5 50.97 99.64 C 51.3 99.78 51.59 99.98 51.85 100.23 C 52.1 100.49 52.3 100.78 52.44 101.12 C 52.58 101.46 52.65 101.82 52.65 102.21 C 52.65 102.6 52.58 102.97 52.44 103.3 C 52.3 103.64 52.1 103.93 51.85 104.19 C 51.6 104.44 51.3 104.64 50.97 104.78 C 50.64 104.92 50.28 104.99 49.9 104.99 Z M 49.9 104.66 C 50.23 104.66 50.55 104.6 50.84 104.47 C 51.13 104.34 51.39 104.17 51.6 103.95 C 51.82 103.73 51.99 103.47 52.11 103.17 C 52.23 102.87 52.29 102.55 52.29 102.2 C 52.29 101.86 52.23 101.53 52.11 101.23 C 51.99 100.93 51.82 100.67 51.6 100.45 C 51.38 100.23 51.13 100.05 50.84 99.93 C 50.55 99.8 50.24 99.74 49.9 99.74 C 49.56 99.74 49.25 99.8 48.96 99.93 C 48.67 100.06 48.41 100.23 48.2 100.45 C 47.98 100.67 47.81 100.93 47.69 101.23 C 47.57 101.53 47.51 101.85 47.51 102.2 C 47.51 102.55 47.57 102.87 47.69 103.17 C 47.81 103.47 47.98 103.73 48.2 103.95 C 48.42 104.17 48.67 104.35 48.96 104.47 C 49.25 104.59 49.57 104.66 49.9 104.66 Z"
            fill="#baa071"/>
        </g>
        <g id="Graphic_22">
          <path
            d="M 53.67 104.9 L 53.67 99.49 L 54.23 99.49 L 56.25 103.75 L 58.26 99.49 L 58.82 99.49 L 58.82 104.9 L 58.46 104.9 L 58.46 99.83 L 56.25 104.52 L 54.03 99.85 L 54.03 104.91 L 53.67 104.91 Z"
            fill="#baa071"/>
        </g>
        <g id="Graphic_21">
          <path
            d="M 60.09 104.9 L 60.09 99.49 L 60.65 99.49 L 62.67 103.75 L 64.68 99.49 L 65.24 99.49 L 65.24 104.9 L 64.88 104.9 L 64.88 99.83 L 62.67 104.52 L 60.45 99.85 L 60.45 104.91 L 60.09 104.91 Z"
            fill="#baa071"/>
        </g>
        <g id="Graphic_20">
          <path
            d="M 68.56 104.99 C 68.13 104.99 67.76 104.9 67.43 104.72 C 67.11 104.54 66.85 104.27 66.67 103.92 C 66.49 103.57 66.4 103.14 66.4 102.64 L 66.4 99.49 L 66.76 99.49 L 66.76 102.64 C 66.76 103.07 66.84 103.43 66.99 103.73 C 67.14 104.03 67.36 104.26 67.63 104.42 C 67.9 104.58 68.21 104.66 68.56 104.66 C 68.91 104.66 69.22 104.58 69.49 104.42 C 69.76 104.26 69.97 104.03 70.13 103.73 C 70.29 103.43 70.36 103.06 70.36 102.64 L 70.36 99.49 L 70.72 99.49 L 70.72 102.64 C 70.72 103.14 70.63 103.57 70.45 103.92 C 70.27 104.27 70.02 104.54 69.69 104.72 C 69.36 104.9 68.99 104.99 68.56 104.99 Z"
            fill="#baa071"/>
        </g>
        <g id="Graphic_19">
          <path
            d="M 71.88 104.9 L 71.88 99.49 L 72.27 99.49 L 75.76 104.28 L 75.76 99.49 L 76.12 99.49 L 76.12 104.9 L 75.81 104.9 L 72.24 100.01 L 72.24 104.9 Z"
            fill="#baa071"/>
        </g>
        <g id="Graphic_18">
          <rect x="77.4" y="99.49" width=".36" height="5.41" fill="#baa071"/>
        </g>
        <g id="Graphic_17">
          <path
            d="M 80.54 104.9 L 80.54 99.82 L 78.53 99.82 L 78.53 99.49 L 82.91 99.49 L 82.91 99.82 L 80.9 99.82 L 80.9 104.9 Z"
            fill="#baa071"/>
        </g>
        <g id="Graphic_16">
          <path
            d="M 85.33 104.9 L 85.33 102.64 L 83.21 99.49 L 83.64 99.49 L 85.52 102.32 L 87.41 99.49 L 87.82 99.49 L 85.69 102.66 L 85.69 104.9 L 85.33 104.9 Z"
            fill="#baa071"/>
        </g>
      </g>
    </g>
  </g>
</svg>
