<?xml version="1.0" encoding="utf-8"?>
<!-- Generator: Adobe Illustrator 27.1.1, SVG Export Plug-In . SVG Version: 6.00 Build 0)  -->
<svg version="1.1" id="Layer_1" xmlns="http://www.w3.org/2000/svg" x="0px"
     y="0px"
     viewBox="20.12 07.85 130.07 117.17" style="enable-background:new 20.12 27.85 89.07 77.17;" xml:space="preserve">
<style type="text/css">
	.st0{fill:#465A71;}
	.st1{fill:#FEFED4;}
	.st2{fill:url(#SVGID_1_);}
	.st3{fill:#E11F26;}
	.st4{fill:#FFFFFF;}
	.st5{fill:#BAA071;}
</style>
  <rect class="st0" width="169.89" height="136.47"/>
  <g>
	<path class="st1" d="M95.91,41.63V12.77h1.9v27.08h10.66v1.77H95.91z"/>
    <path class="st1" d="M101.2,36.22l9.62-23.45h2.35l11.99,28.85h-2.06l-4-9.77h-14.3l-1.63,4.37H101.2z M105.5,30.17h12.9
		l-6.43-15.62L105.5,30.17z"/>
    <path class="st1" d="M137.48,42.08c-2.09,0-4.03-0.39-5.83-1.16c-1.8-0.77-3.37-1.83-4.7-3.19c-1.33-1.36-2.38-2.94-3.13-4.74
		c-0.76-1.8-1.13-3.73-1.13-5.79c0-2.06,0.38-3.99,1.13-5.79c0.75-1.8,1.8-3.38,3.13-4.74c1.33-1.36,2.9-2.43,4.7-3.19
		c1.8-0.77,3.74-1.15,5.83-1.15c1.43,0,2.81,0.16,4.14,0.49c1.33,0.33,2.59,0.82,3.77,1.48c1.18,0.66,2.25,1.48,3.22,2.47
		l-1.24,1.44c-1.18-1.29-2.66-2.3-4.43-3.03c-1.77-0.73-3.59-1.09-5.46-1.09c-1.84,0-3.54,0.34-5.09,1.01
		c-1.55,0.67-2.91,1.61-4.08,2.8c-1.17,1.2-2.08,2.58-2.72,4.16c-0.65,1.58-0.97,3.29-0.97,5.13c0,1.84,0.32,3.55,0.97,5.13
		c0.65,1.58,1.55,2.97,2.72,4.16c1.17,1.19,2.53,2.13,4.08,2.8c1.55,0.67,3.25,1.01,5.09,1.01c1.87,0,3.69-0.37,5.46-1.11
		c1.77-0.74,3.25-1.74,4.43-3.01l1.24,1.44c-0.96,0.99-2.03,1.81-3.22,2.47c-1.18,0.66-2.44,1.15-3.77,1.48
		C140.29,41.92,138.91,42.08,137.48,42.08z"/>
    <path class="st1" d="M75.93,39.76c-0.44-0.13-0.86-0.29-1.28-0.47c-1.55-0.67-2.91-1.6-4.06-2.78c-1.15-1.18-2.05-2.57-2.7-4.16
		c-0.65-1.59-0.97-3.31-0.97-5.15c0-1.84,0.32-3.56,0.97-5.15c0.65-1.59,1.55-2.98,2.7-4.16c1.15-1.18,2.51-2.11,4.06-2.78
		c1.55-0.67,3.22-1.01,5.01-1.01c1.79,0,3.46,0.34,5.01,1.01c1.55,0.67,2.91,1.6,4.06,2.78c1.15,1.18,2.05,2.57,2.7,4.16
		c0.65,1.59,0.97,3.31,0.97,5.15c0,1.84-0.32,3.56-0.97,5.15c-0.3,0.74-0.66,1.42-1.07,2.07v1.51h1.19c0.64-0.9,1.21-1.85,1.65-2.9
		c0.76-1.8,1.13-3.74,1.13-5.83c0-2.09-0.38-4.03-1.13-5.83c-0.76-1.8-1.81-3.38-3.15-4.74c-1.35-1.36-2.91-2.42-4.68-3.17
		c-1.77-0.76-3.68-1.13-5.71-1.13c-2.03,0-3.94,0.38-5.71,1.13c-1.77,0.76-3.33,1.81-4.68,3.17c-1.35,1.36-2.4,2.94-3.15,4.74
		c-0.76,1.8-1.13,3.74-1.13,5.83c0,2.09,0.38,4.03,1.13,5.83c0.75,1.8,1.81,3.38,3.15,4.74c1.35,1.36,2.91,2.42,4.68,3.17
		c0.64,0.27,1.31,0.48,1.98,0.66V39.76z"/>
    <linearGradient id="SVGID_1_" gradientUnits="userSpaceOnUse" x1="20.3852" y1="50.7398" x2="149.5062" y2="50.7398">
		<stop offset="0" style="stop-color:#B09868"/>
      <stop offset="0.2237" style="stop-color:#D3B589"/>
      <stop offset="0.2737" style="stop-color:#D7BC90"/>
      <stop offset="0.3474" style="stop-color:#E3CFA4"/>
      <stop offset="0.4355" style="stop-color:#F5EFC5"/>
      <stop offset="0.4739" style="stop-color:#FFFFD5"/>
      <stop offset="0.5305" style="stop-color:#ECE6BB"/>
      <stop offset="0.6384" style="stop-color:#CCBC8E"/>
      <stop offset="0.722" style="stop-color:#B7A272"/>
      <stop offset="0.7706" style="stop-color:#B09868"/>
      <stop offset="1" style="stop-color:#D3B589"/>
	</linearGradient>
    <path class="st2" d="M144.48,72.15V58.87h-2.71v-3.1h-0.47v3.1h-2.45v12.06h-0.6v-14.4h-0.59v-0.59h-4.45v0.59h-0.59v6.66h-4.94
		v4.19h-4.6V57.2h-8.27v4.13h-6.9V57.2h-2.9v-4.23h-3.95V50h-0.47v2.97h-4.28v4.23h-2.57v4.68h-2.57V37.63h-2.27v-3.72l-1.41-2.24
		h-0.34l-0.31-7.83h-2.13v-1.4h-0.47v1.4h-1.94L82,31.67h-0.53l-1.41,2.24v3.72h-2.27v18.69l-2.53-2.51v-8.7h-1.88v-1.66l-3.38-0.4
		l-3.09,0.41v1.66h-2.16v18.57h-3v-2.42l-1.99-2.93H43.21l-1.98,2.98v1.71h-3.32v3.27h-3.66v-4.49h-1.06v-3.87h-1.67v-2.54h-0.47
		v2.54h-1.67v3.87h-1.06v9.74h-2.31v-7.27h-0.59v-0.6h-4.45v0.6h-0.59v13.16h0.47V64.75h0.59v-0.6h3.51v0.6h0.59v7.27h5.74v-0.47
		h-2.49v-9.28h1.06V58.4h2.86v3.87h1.06v13.4h-5.2v0.47h12.65h20.54h3h1.31h2.44h0.42h2.44h0.42h2.44h1.03h2.53h2.27h0.17h8.68h0.02
		h2.26h2.57h14.17h6.9h8.27h23.7v-0.47h-15.33v-5.77h1.63V56.99h0.59V56.4h3.51v0.59h0.59v14.4h1.54V59.33h4.69v13.28h5.03v6.42
		h0.47v-6.89H144.48z M96.79,53.43h7.76v3.77h-7.76V53.43z M87.24,32.14l1.2,1.91v29.91l-0.68-17.14v-0.06h0l-0.58-14.62H87.24z
		 M82.76,24.31h3.63l0.9,22.51v28.85h-1V36.79h-0.47v38.89h-1V36.79h-0.47v38.89h-1V36.79h-0.47v38.89h-1V46.84h0L82.76,24.31z
		 M81.73,32.14h0.25l-1.45,36.53V34.04L81.73,32.14z M67.38,43.86l2.63-0.34l2.91,0.35v1.25h-5.53V43.86z M43.57,61.1v-2.3h15.85
		v2.3H43.57z M59.41,61.57v14.11H43.57V61.57H59.41z M43.1,61.1h-1.17l1.17-1.76V61.1z M59.88,59.33l1.2,1.77h-1.2V59.33z
		 M34.24,75.68v-8.92h3.66v4.38h0.47v-7.65h2.85v12.19H34.24z M41.69,61.57h1.41v14.11h-1.41V61.57z M59.88,75.68V61.57h1.41v14.11
		H59.88z M61.76,75.68V64.15h3v11.53H61.76z M66.54,75.68V47.45h1.5v28.22H66.54z M69.4,75.68V47.45h1.5v28.22H69.4z M72.26,75.68
		V47.45h1.5v28.22H72.26z M74.23,75.68V46.99h-2.44v28.69h-0.42V46.99h-2.44v28.69h-0.42V46.99h-2.44v28.69h-0.84v-30.1h1.69h6.47
		h1.41v30.1H74.23z M75.26,75.68V54.47l2.53,2.51v18.69H75.26z M78.26,75.68V38.1h1.81v37.58H78.26z M81.4,58.61v17.07h-0.68
		L81.4,58.61z M87.76,75.68V58.61l0.68,17.07H87.76z M88.91,75.68V38.1h1.81v37.58H88.91z M91.19,75.68V62.35h2.57v13.33H91.19z
		 M94.23,75.68V57.67h2.1h8.7h2.43v18.01H94.23z M107.92,75.68V61.8h6.9v13.88H107.92z M115.29,75.68V57.67h7.33v18.01H115.29z
		 M131,69.44v6.24h-7.91v-7.84h7.3v-0.47h-2.23v-3.72h4.47v5.79H131z M86.29,24.95h-3.42v9.6h3.42V24.95z M85.82,27.23h-1v-1.81h1
		V27.23z M84.35,29.98v1.81h-1v-1.81H84.35z M83.34,29.51V27.7h1v1.81H83.34z M84.81,29.98h1v1.81h-1V29.98z M84.81,29.51V27.7h1
		v1.81H84.81z M84.35,25.42v1.81h-1v-1.81H84.35z M83.34,32.26h1v1.81h-1V32.26z M84.81,34.08v-1.81h1v1.81H84.81z M116.58,60.07
		h0.47v3.19h-0.47V60.07z M118.72,60.07h0.47v3.19h-0.47V60.07z M120.87,60.07h0.47v3.19h-0.47V60.07z M116.58,64.93h0.47v3.19
		h-0.47V64.93z M118.72,64.93h0.47v3.19h-0.47V64.93z M120.87,64.93h0.47v3.19h-0.47V64.93z M116.58,69.8h0.47v3.19h-0.47V69.8z
		 M118.72,69.8h0.47v3.19h-0.47V69.8z M120.87,69.8h0.47v3.19h-0.47V69.8z M58.45,63.51H44.62v-0.5h13.83V63.51z M58.45,65.36H44.62
		v-0.5h13.83V65.36z M58.45,67.21H44.62v-0.5h13.83V67.21z M58.45,69.05H44.62v-0.5h13.83V69.05z M58.45,70.9H44.62v-0.5h13.83V70.9
		z M58.45,72.74H44.62v-0.5h13.83V72.74z M58.45,74.59H44.62v-0.5h13.83V74.59z M79.35,41.73h-0.46v-2.25h0.46V41.73z M90.01,41.73
		h-0.46v-2.25h0.46V41.73z M79.35,46.39h-0.46v-2.25h0.46V46.39z M90.01,46.39h-0.46v-2.25h0.46V46.39z M79.35,51.05h-0.46V48.8
		h0.46V51.05z M90.01,51.05h-0.46V48.8h0.46V51.05z M79.35,55.71h-0.46v-2.25h0.46V55.71z M90.01,55.71h-0.46v-2.25h0.46V55.71z
		 M79.35,60.38h-0.46v-2.25h0.46V60.38z M90.01,60.38h-0.46v-2.25h0.46V60.38z M79.35,65.04h-0.46v-2.25h0.46V65.04z M90.01,65.04
		h-0.46v-2.25h0.46V65.04z M79.35,69.7h-0.46v-2.25h0.46V69.7z M90.01,69.7h-0.46v-2.25h0.46V69.7z M79.35,74.36h-0.46v-2.25h0.46
		V74.36z M90.01,74.36h-0.46v-2.25h0.46V74.36z"/>
    <g>
		<path class="st3" d="M40.24,13.52c1.84,0,3.69,0,5.53,0c0.06,0.01,0.12,0.03,0.18,0.03c0.64,0.01,1.28,0.01,1.93,0.03
			c1.01,0.02,2.01,0.05,3.02,0.08c1.54,0.04,3.08,0.11,4.61,0.24c0.69,0.06,1.38,0.12,2.06,0.25c0.26,0.05,0.52,0.13,0.77,0.2
			c0.13,0.04,0.2,0.14,0.21,0.28c0.06,0.59,0.15,1.18,0.2,1.78c0.07,0.74,0.12,1.47,0.12,2.21c0,0.07,0.02,0.13,0.03,0.2
			c0,1.09,0,2.18,0,3.28c-0.01,0.07-0.03,0.14-0.03,0.22c-0.01,0.98-0.08,1.95-0.17,2.93c-0.09,1.02-0.22,2.04-0.37,3.06
			c-0.25,1.66-0.6,3.3-1.04,4.92c-0.76,2.81-1.8,5.5-3.2,8.06c-1.54,2.82-3.45,5.35-5.79,7.56c-1.67,1.58-3.5,2.93-5.48,4.09
			c-0.06,0.03-0.1,0.08-0.16,0.12c-0.02,0-0.05,0-0.07,0c-0.08-0.05-0.16-0.1-0.25-0.14c-2.71-1.37-5.13-3.15-7.25-5.33
			c-1.81-1.87-3.33-3.95-4.61-6.22c-1.36-2.41-2.4-4.96-3.21-7.6c-0.66-2.14-1.15-4.33-1.49-6.54c-0.14-0.92-0.26-1.85-0.35-2.77
			c-0.09-0.85-0.14-1.7-0.2-2.55c-0.03-0.44-0.04-0.89-0.07-1.33c0-0.06-0.03-0.12-0.04-0.18c0-0.71,0-1.41,0-2.12
			c0.01-0.06,0.04-0.13,0.04-0.2c0.04-0.56,0.05-1.12,0.11-1.68c0.05-0.5,0.11-0.99,0.2-1.49c0.08-0.48,0.13-0.53,0.61-0.62
			c0.51-0.1,1.03-0.18,1.55-0.23c0.86-0.09,1.72-0.15,2.58-0.2c0.95-0.06,1.9-0.1,2.84-0.14c1.15-0.04,2.3-0.08,3.44-0.1
			c1.19-0.03,2.39-0.04,3.58-0.06C40.13,13.54,40.19,13.53,40.24,13.52z"/>
      <path class="st4" d="M51.67,31.44c0-0.06,0-0.12,0-0.17c-0.01-0.91-0.02-1.82-0.04-2.73c-0.01-0.43-0.06-0.85-0.09-1.28
			c0-0.04-0.01-0.09-0.03-0.13c-0.3-0.77-0.79-1.34-1.63-1.54c-0.67-0.16-1.31-0.05-1.91,0.28c-0.06,0.03-0.11,0.08-0.16,0.13
			c-0.57,0.66-0.88,1.42-0.96,2.29c-0.07,0.88,0.1,1.72,0.39,2.54c0.07,0.19,0.14,0.37,0.22,0.56c0.24,0.59,0.61,1.09,1.07,1.53
			c0.21,0.2,0.42,0.4,0.64,0.58c0.06,0.05,0.14,0.09,0.22,0.12c0.82,0.26,1.64,0.21,2.44-0.09c0.62-0.23,1.17-0.58,1.7-0.97
			c0.49-0.37,0.96-0.77,1.4-1.19c0.04-0.04,0.08-0.07,0.14-0.13c0.29,0.34,0.57,0.67,0.85,1.01c-0.04,0.03-0.07,0.06-0.09,0.07
			c-1.23,0.73-2.51,1.36-3.89,1.76c-0.68,0.2-1.37,0.32-2.08,0.29c-0.41-0.02-0.79-0.12-1.17-0.28c-0.52-0.23-0.98-0.52-1.37-0.94
			c-0.27-0.29-0.51-0.6-0.71-0.94c-0.25-0.44-0.49-0.88-0.73-1.33c-0.05-0.09-0.11-0.15-0.21-0.18c-0.49-0.15-0.99-0.24-1.5-0.32
			c-0.47-0.08-0.93-0.14-1.4-0.21c-0.04-0.01-0.08,0-0.12-0.01c-0.05,0.14-0.07,0.36-0.04,0.56c0.37,0.06,0.75,0.12,1.12,0.17
			c0.37,0.05,0.73,0.1,1.1,0.17c0,0.01,0,0.03,0,0.04c-0.76,0.13-1.52,0.26-2.3,0.39c-0.01,0.07-0.03,0.15-0.04,0.23
			c-0.21,1.38-0.24,2.76-0.28,4.15c-0.03,0.9-0.08,1.79-0.13,2.69c-0.01,0.16-0.03,0.32-0.05,0.47c-0.01,0.09-0.01,0.18-0.02,0.29
			c0.82-0.12,1.61-0.24,2.42-0.36c0.02-0.12,0.03-0.24,0.05-0.36c0.09-0.54,0.34-1.01,0.73-1.4c0.48-0.48,1.06-0.79,1.7-1.02
			c0.01,0,0.02,0,0.06,0.01c-0.04,0.04-0.07,0.07-0.11,0.1c-0.29,0.24-0.58,0.48-0.86,0.73c-0.31,0.28-0.55,0.63-0.73,1
			c-0.13,0.25-0.15,0.77,0.19,1.05c0.13,0.1,0.27,0.2,0.41,0.27c0.28,0.15,0.57,0.29,0.85,0.43c0.05,0.03,0.11,0.06,0.15,0.11
			c-0.03,0-0.07,0.01-0.1,0c-0.73-0.17-1.47-0.29-2.23-0.31c-0.48-0.01-0.97,0.02-1.45,0.03c-0.2,0.01-0.4,0.04-0.59,0.06
			c-0.11,0.01-0.18,0.06-0.22,0.17c-0.32,0.96-0.54,1.94-0.51,2.96c0,0.03,0,0.07-0.03,0.11c-0.02-0.07-0.03-0.14-0.05-0.21
			c-0.08-0.43-0.19-0.85-0.33-1.27c-0.3-0.85-0.86-1.44-1.69-1.79c-0.54-0.23-1.11-0.37-1.68-0.51c-0.05-0.01-0.1-0.03-0.16-0.04
			c0.25-0.11,1.23-0.19,1.96-0.07c0.65,0.11,1.26,0.33,1.84,0.68c0-0.06,0-0.09,0-0.13c-0.05-0.53-0.11-1.06-0.15-1.59
			c-0.1-1.39-0.07-2.78-0.06-4.18c0-0.76-0.03-1.52-0.04-2.29c0-0.11-0.05-0.16-0.14-0.2c-0.51-0.22-1.02-0.45-1.53-0.67
			c-0.05-0.02-0.1-0.05-0.14-0.07c0-0.01,0.01-0.02,0.01-0.04c0.54-0.02,1.09-0.04,1.63-0.06c0-0.01,0-0.03,0-0.04
			c-1.01-0.26-2.02-0.47-3.09-0.33c-0.04-0.08-0.09-0.16-0.12-0.25c-0.17-0.52-0.36-1.03-0.51-1.55c-0.3-1.05-0.59-2.11-0.89-3.17
			c-0.09-0.32-0.21-0.62-0.32-0.94c-0.11-0.31-0.3-0.56-0.54-0.78c-0.42-0.38-0.89-0.69-1.36-1c-0.06-0.04-0.11-0.07-0.19-0.08
			c0.04,0.04,0.08,0.08,0.13,0.12c0.42,0.38,0.79,0.8,1.1,1.27c0.22,0.33,0.39,0.69,0.5,1.08c0.16,0.52,0.34,1.02,0.49,1.54
			c0.22,0.77,0.37,1.55,0.39,2.35c0.01,0.49-0.04,0.98-0.2,1.44c-0.05,0.15-0.12,0.29-0.19,0.45c0.92,0.14,1.84,0.19,2.75,0.25
			c-0.02,0.12-0.5,0.72-0.78,1c-0.05-0.01-0.11-0.03-0.17-0.05c-0.86-0.3-1.74-0.43-2.65-0.36c-0.91,0.06-1.76,0.33-2.57,0.74
			c-0.95,0.49-1.78,1.14-2.54,1.89c-0.17,0.16-0.34,0.32-0.5,0.46c0,0,0-0.03,0.01-0.06c0.23-0.56,0.47-1.11,0.71-1.66
			c0.03-0.07,0.09-0.13,0.16-0.17c1.02-0.72,2.13-1.26,3.33-1.62c0.35-0.11,0.69-0.23,1.04-0.33c0.13-0.04,0.21-0.11,0.27-0.23
			c0.31-0.61,0.5-1.25,0.59-1.93c0.12-0.95,0.03-1.87-0.28-2.77c-0.18-0.51-0.43-0.98-0.76-1.4c-0.04-0.05-0.08-0.09-0.13-0.15
			c-0.06,0.15-0.11,0.29-0.18,0.41c-0.22,0.36-0.44,0.71-0.68,1.06c-0.07,0.11-0.09,0.19-0.03,0.31c0.11,0.23,0.2,0.47,0.3,0.7
			c0.02,0.05,0.04,0.1,0.07,0.18c-0.05,0-0.09,0.01-0.12,0c-0.28-0.05-0.57-0.11-0.85-0.16c-0.11-0.02-0.17-0.08-0.21-0.18
			c-0.38-1.02-0.44-2.06-0.21-3.12c0.13-0.61,0.34-1.19,0.56-1.77c0.11-0.3,0.22-0.6,0.34-0.89c0.01-0.03,0.03-0.06,0.05-0.11
			c0.03,0.05,0.04,0.07,0.06,0.1c0.16,0.37,0.39,0.68,0.69,0.95c0.3,0.26,0.61,0.51,0.92,0.76c0.44,0.34,0.88,0.68,1.28,1.07
			c0.76,0.74,1.22,1.62,1.36,2.67c0.07,0.53,0.13,1.07,0.2,1.61c0.01,0.08,0.03,0.17,0.04,0.26c0.82,0.28,1.64,0.57,2.46,0.85
			c0.01-0.01,0.01-0.02,0.02-0.02c-0.42-0.58-0.84-1.16-1.29-1.77c0.17,0.03,0.26,0.13,0.37,0.19c0.11,0.06,0.22,0.14,0.34,0.2
			c0.11,0.07,0.22,0.13,0.34,0.2c0.11,0.07,0.23,0.13,0.34,0.2c0.11,0.07,0.22,0.13,0.35,0.21c0.01-0.04,0.01-0.07,0.01-0.09
			c0.01-0.68,0.02-1.36,0.03-2.05c0.02-0.75,0.01-1.5-0.2-2.23c-0.07-0.26-0.18-0.5-0.27-0.75c-0.04-0.1-0.11-0.16-0.21-0.21
			c-0.26-0.12-0.53-0.12-0.8-0.08c-0.32,0.05-0.61,0.17-0.9,0.31c-0.34,0.16-0.67,0.34-1.01,0.5c-0.13,0.06-0.27,0.12-0.41,0.18
			c0-0.14,0.42-1.24,0.6-1.6c0.04,0,0.09,0,0.14,0c0.56,0.01,1.13,0.01,1.69,0.02c0.41,0.01,0.82,0.01,1.23,0.02
			c0.09,0,0.16-0.02,0.24-0.07c0.75-0.55,1.11-1.29,1.05-2.22c-0.01-0.15-0.03-0.3-0.06-0.49c-0.59,0.52-1.08,1.09-1.64,1.59
			c-0.13-0.49-0.26-0.95-0.4-1.44c0.06-0.04,0.12-0.09,0.18-0.12c0.29-0.15,0.57-0.3,0.86-0.44c0.2-0.1,0.41-0.19,0.61-0.3
			c0.09-0.05,0.18-0.06,0.28-0.03c0.59,0.13,0.97,0.56,1.04,1.18c0.08,0.71-0.11,1.35-0.45,1.96c-0.03,0.05-0.06,0.11-0.09,0.16
			c0,0,0,0.01,0.01,0.02c0.14,0.01,0.28,0.01,0.42,0.02c0.42,0.04,0.81,0.18,1.18,0.37c0.3,0.15,0.6,0.33,0.9,0.48
			c0.32,0.17,0.65,0.33,0.98,0.47c0.41,0.17,0.85,0.21,1.29,0.09c0.11-0.03,0.22-0.07,0.32-0.12c0.03-0.02,0.07-0.07,0.07-0.1
			c0-0.15-0.01-0.31-0.03-0.46c-0.03-0.18-0.15-0.3-0.32-0.33c-0.18-0.03-0.36-0.06-0.54-0.07c-0.35-0.02-0.35-0.02-0.56-0.29
			c-0.66-0.83-1.4-1.6-2.12-2.38c-0.62-0.67-1.25-1.34-1.86-2.02c-0.36-0.41-0.69-0.85-1.02-1.28c-0.13-0.17-0.22-0.35-0.34-0.54
			c0.08-0.04,0.13,0.01,0.17,0.03c0.36,0.18,0.69,0.41,1.02,0.66c0.96,0.74,1.82,1.58,2.65,2.45c1.08,1.14,2.22,2.24,3.4,3.28
			c0.03,0.03,0.07,0.06,0.12,0.1c0.26-0.23,0.52-0.46,0.82-0.72c-0.01,0.1-0.01,0.15-0.02,0.2c-0.07,0.39-0.14,0.77-0.22,1.16
			c-0.02,0.09,0,0.16,0.05,0.24c0.2,0.32,0.4,0.64,0.59,0.96c0.02,0.03,0.03,0.07,0.03,0.12c-0.05-0.03-0.09-0.05-0.14-0.09
			c-0.33-0.23-0.66-0.46-0.99-0.69c-0.09-0.07-0.18-0.08-0.28-0.03c-0.24,0.12-0.48,0.22-0.73,0.33c-0.23,0.1-0.47,0.2-0.73,0.23
			c-0.24,0.03-0.47-0.01-0.7-0.11c-0.63-0.27-1.25-0.54-1.88-0.8c-0.35-0.14-0.7-0.26-1.08-0.35c-0.01,0.05-0.03,0.09-0.04,0.13
			c-0.19,0.94-0.36,1.89-0.46,2.84c-0.08,0.74-0.13,1.48-0.11,2.23c0,0.03,0,0.07,0.01,0.12c0.66-0.44,1.32-0.86,1.97-1.29
			c0.01,0.01,0.02,0.02,0.03,0.04c-0.3,0.38-0.63,0.75-0.96,1.11c-0.34,0.36-0.69,0.71-1.1,1.04c0.18,0.02,0.33-0.02,0.47-0.04
			c0.43-0.06,0.86-0.14,1.3-0.2c0.27-0.04,0.53-0.03,0.8,0.03c0.42,0.09,0.75,0.31,1.01,0.65c0.03,0.05,0.07,0.09,0.1,0.14
			c0,0,0.01,0,0.02,0.01c-0.03-0.19-0.06-0.38-0.07-0.57c-0.08-1.08,0.15-2.09,0.76-3c0.27-0.4,0.63-0.7,1.07-0.9
			c0.54-0.25,1.1-0.4,1.7-0.37c0.67,0.03,1.22,0.29,1.66,0.79c0.37,0.43,0.58,0.93,0.74,1.46c0.07,0.24,0.09,0.49,0.1,0.74
			c0.02,0.6-0.04,1.19-0.14,1.78c-0.11,0.62-0.27,1.23-0.47,1.83c-0.02,0.05-0.04,0.09-0.06,0.14
			C51.71,31.42,51.7,31.42,51.67,31.44z"/>
	</g>
    <g>
		<path class="st5" d="M68.84,94.81c-0.79,0-1.53-0.15-2.22-0.44c-0.69-0.29-1.29-0.7-1.82-1.23c-0.52-0.53-0.93-1.14-1.22-1.84
			c-0.29-0.7-0.44-1.45-0.44-2.26c0-0.81,0.15-1.57,0.44-2.27c0.29-0.7,0.7-1.31,1.22-1.84c0.52-0.53,1.13-0.94,1.82-1.23
			c0.69-0.29,1.43-0.44,2.22-0.44s1.53,0.15,2.22,0.44c0.69,0.29,1.29,0.7,1.82,1.23c0.52,0.53,0.93,1.14,1.23,1.84
			c0.29,0.7,0.44,1.45,0.44,2.27c0,0.81-0.15,1.57-0.44,2.26c-0.29,0.7-0.7,1.31-1.23,1.84c-0.52,0.53-1.13,0.94-1.82,1.23
			C70.37,94.66,69.63,94.81,68.84,94.81z M68.84,94.12c0.69,0,1.34-0.13,1.94-0.39c0.6-0.26,1.13-0.62,1.58-1.08
			c0.45-0.46,0.8-1,1.05-1.62c0.25-0.62,0.38-1.28,0.38-2c0-0.72-0.13-1.38-0.38-2c-0.25-0.62-0.6-1.16-1.05-1.62
			c-0.45-0.46-0.97-0.82-1.58-1.08c-0.6-0.26-1.25-0.39-1.94-0.39s-1.34,0.13-1.94,0.39s-1.13,0.62-1.58,1.08
			c-0.45,0.46-0.8,1-1.05,1.62c-0.25,0.62-0.38,1.28-0.38,2c0,0.71,0.13,1.38,0.38,2c0.25,0.62,0.6,1.16,1.05,1.62
			c0.45,0.46,0.97,0.82,1.58,1.08C67.5,93.99,68.14,94.12,68.84,94.12z"/>
      <path class="st5"
            d="M76.23,94.63v-7.84h0.81l2.92,6.17l2.91-6.17h0.81v7.84h-0.52v-7.35l-3.21,6.79l-3.22-6.77v7.33H76.23z"/>
      <path class="st5" d="M84.7,94.63l3.27-7.84h0.64l3.26,7.84h-0.56l-1.09-2.65h-3.89l-1.1,2.65H84.7z M86.53,91.52h3.51l-1.75-4.25
			L86.53,91.52z"/>
      <path class="st5" d="M92.88,94.63v-7.84h0.52v3.65h5v-3.65h0.52v7.84H98.4v-3.71h-5v3.71H92.88z"/>
      <path class="st5" d="M99.93,94.63l3.27-7.84h0.64l3.26,7.84h-0.56l-1.09-2.65h-3.89l-1.1,2.65H99.93z M101.76,91.52h3.51
			l-1.75-4.25L101.76,91.52z"/>
      <path class="st5" d="M21.15,109.3V98.1h0.74v10.52h6.91v0.69H21.15z"/>
      <path class="st5" d="M30.24,109.3v-7.84h0.52v7.84H30.24z"/>
      <path class="st5" d="M34.79,109.3v-7.36h-2.91v-0.48h6.34v0.48H35.3v7.36H34.79z"/>
      <path class="st5" d="M39.34,109.3v-7.84h0.52v3.65h5v-3.65h0.52v7.84h-0.52v-3.71h-5v3.71H39.34z"/>
      <path class="st5" d="M50.18,109.43c-0.62,0-1.16-0.13-1.64-0.4c-0.47-0.26-0.84-0.65-1.1-1.16c-0.26-0.51-0.39-1.13-0.39-1.85
			v-4.56h0.52v4.56c0,0.62,0.11,1.15,0.34,1.59c0.22,0.44,0.53,0.77,0.92,1c0.39,0.23,0.84,0.34,1.35,0.34s0.96-0.11,1.35-0.34
			c0.39-0.23,0.7-0.56,0.92-1c0.23-0.44,0.34-0.97,0.34-1.59v-4.56h0.52v4.56c0,0.72-0.13,1.34-0.39,1.85
			c-0.26,0.51-0.63,0.89-1.1,1.16C51.35,109.29,50.8,109.43,50.18,109.43z"/>
      <path class="st5" d="M53.82,109.3l3.27-7.84h0.64l3.26,7.84h-0.56l-1.09-2.65h-3.89l-1.1,2.65H53.82z M55.65,106.19h3.51
			l-1.75-4.25L55.65,106.19z"/>
      <path class="st5" d="M62,109.3v-7.84h0.56l5.06,6.94v-6.94h0.52v7.84h-0.45l-5.18-7.08v7.08H62z"/>
      <path class="st5" d="M70,109.3v-7.84h0.52v7.84H70z"/>
      <path class="st5" d="M71.54,109.3l3.27-7.84h0.64l3.26,7.84h-0.56l-1.09-2.65h-3.89l-1.1,2.65H71.54z M73.36,106.19h3.51
			l-1.75-4.25L73.36,106.19z"/>
      <path class="st5" d="M79.72,109.3v-7.84h0.56l5.06,6.94v-6.94h0.52v7.84h-0.45l-5.18-7.08v7.08H79.72z"/>
      <path class="st5" d="M90.45,109.3l4.67-11.2h0.91l4.66,11.2h-0.8l-1.55-3.79h-5.55l-1.57,3.79H90.45z M93.06,104.85h5.01
			l-2.5-6.07L93.06,104.85z"/>
      <path class="st5"
            d="M101.74,109.3v-7.84h0.81l2.92,6.17l2.91-6.17h0.81v7.84h-0.52v-7.35l-3.21,6.79l-3.22-6.77v7.33H101.74z"/>
      <path class="st5" d="M111.05,109.3v-7.84h5.42v0.48h-4.91v3.16h3.21v0.48h-3.21v3.24h4.95v0.48H111.05z"/>
      <path class="st5" d="M117.79,109.3v-7.84h3.16c0.53,0,0.98,0.09,1.35,0.29c0.37,0.19,0.65,0.45,0.84,0.77
			c0.19,0.33,0.29,0.7,0.29,1.12c0,0.51-0.15,0.95-0.44,1.33c-0.29,0.38-0.71,0.64-1.27,0.76l1.74,3.57h-0.56l-1.69-3.5h-2.9v3.5
			H117.79z M118.31,105.33h2.61c0.64,0,1.13-0.16,1.47-0.49s0.51-0.73,0.51-1.2c0-0.49-0.17-0.89-0.51-1.21
			c-0.34-0.32-0.83-0.48-1.47-0.48h-2.61V105.33z"/>
      <path class="st5" d="M124.84,109.3v-7.84h0.52v7.84H124.84z"/>
      <path class="st5" d="M130.84,109.43c-0.57,0-1.1-0.1-1.59-0.31c-0.49-0.21-0.92-0.5-1.28-0.87s-0.65-0.8-0.85-1.29
			c-0.21-0.49-0.31-1.01-0.31-1.57c0-0.56,0.1-1.09,0.31-1.57c0.21-0.49,0.49-0.92,0.85-1.29c0.36-0.37,0.79-0.66,1.28-0.87
			c0.49-0.21,1.02-0.31,1.59-0.31c0.39,0,0.76,0.05,1.13,0.13s0.7,0.22,1.02,0.4c0.32,0.18,0.61,0.4,0.87,0.67l-0.34,0.39
			c-0.32-0.35-0.72-0.63-1.2-0.82c-0.48-0.2-0.98-0.3-1.48-0.3c-0.5,0-0.96,0.09-1.38,0.27c-0.42,0.18-0.79,0.44-1.11,0.76
			c-0.32,0.32-0.56,0.7-0.74,1.13c-0.18,0.43-0.26,0.9-0.26,1.4c0,0.5,0.09,0.97,0.26,1.4c0.18,0.43,0.42,0.81,0.74,1.13
			c0.32,0.33,0.69,0.58,1.11,0.76c0.42,0.18,0.88,0.27,1.38,0.27c0.51,0,1-0.1,1.48-0.3c0.48-0.2,0.88-0.47,1.2-0.82l0.34,0.39
			c-0.26,0.27-0.55,0.49-0.87,0.67c-0.32,0.18-0.66,0.31-1.02,0.4S131.23,109.43,130.84,109.43z"/>
      <path class="st5" d="M134.48,109.3l3.27-7.84h0.64l3.26,7.84h-0.56l-1.09-2.65h-3.89l-1.1,2.65H134.48z M136.31,106.19h3.51
			l-1.75-4.25L136.31,106.19z"/>
      <path class="st5" d="M142.66,109.3v-7.84h0.56l5.06,6.94v-6.94h0.52v7.84h-0.45l-5.18-7.08v7.08H142.66z"/>
      <path class="st5" d="M53.96,124.15c-0.81,0-1.57-0.15-2.26-0.45c-0.7-0.3-1.31-0.71-1.83-1.24c-0.52-0.53-0.92-1.14-1.22-1.84
			c-0.29-0.7-0.44-1.45-0.44-2.25c0-0.8,0.15-1.55,0.44-2.25c0.29-0.7,0.7-1.31,1.22-1.84c0.52-0.53,1.13-0.94,1.83-1.24
			c0.7-0.3,1.45-0.45,2.26-0.45c0.55,0,1.09,0.06,1.61,0.19c0.52,0.13,1,0.32,1.46,0.58c0.46,0.26,0.87,0.58,1.25,0.96l-0.48,0.56
			c-0.46-0.5-1.03-0.89-1.72-1.18c-0.69-0.28-1.4-0.42-2.12-0.42c-0.71,0-1.37,0.13-1.98,0.39c-0.6,0.26-1.13,0.62-1.58,1.09
			c-0.45,0.46-0.81,1-1.06,1.62c-0.25,0.61-0.38,1.28-0.38,1.99c0,0.71,0.13,1.38,0.38,1.99c0.25,0.61,0.6,1.15,1.06,1.62
			c0.45,0.46,0.98,0.83,1.58,1.09c0.6,0.26,1.26,0.39,1.98,0.39c0.73,0,1.43-0.14,2.12-0.43c0.69-0.29,1.26-0.68,1.72-1.17
			l0.48,0.56c-0.37,0.38-0.79,0.7-1.25,0.96c-0.46,0.25-0.95,0.45-1.46,0.58C55.05,124.09,54.51,124.15,53.96,124.15z"/>
      <path class="st5" d="M63.56,124.1c-0.55,0-1.07-0.1-1.55-0.31c-0.48-0.21-0.91-0.49-1.27-0.86c-0.37-0.37-0.65-0.8-0.86-1.29
			c-0.21-0.49-0.31-1.02-0.31-1.59s0.1-1.1,0.31-1.59c0.21-0.49,0.49-0.92,0.86-1.29c0.37-0.37,0.79-0.66,1.27-0.86
			c0.48-0.21,1-0.31,1.55-0.31c0.55,0,1.07,0.1,1.55,0.31s0.91,0.49,1.27,0.86c0.37,0.37,0.65,0.8,0.86,1.29s0.31,1.02,0.31,1.59
			s-0.1,1.1-0.31,1.59c-0.21,0.49-0.49,0.92-0.86,1.29c-0.37,0.37-0.79,0.66-1.27,0.86S64.11,124.1,63.56,124.1z M63.56,123.62
			c0.49,0,0.94-0.09,1.36-0.27c0.42-0.18,0.79-0.44,1.1-0.76c0.31-0.32,0.56-0.7,0.73-1.13c0.18-0.43,0.26-0.9,0.26-1.4
			c0-0.5-0.09-0.97-0.26-1.4c-0.18-0.43-0.42-0.81-0.73-1.13c-0.31-0.32-0.68-0.57-1.1-0.76c-0.42-0.18-0.88-0.27-1.36-0.27
			c-0.49,0-0.94,0.09-1.36,0.27c-0.42,0.18-0.79,0.44-1.1,0.76c-0.31,0.32-0.56,0.7-0.73,1.13c-0.18,0.43-0.26,0.9-0.26,1.4
			c0,0.5,0.09,0.97,0.26,1.4c0.18,0.43,0.42,0.81,0.73,1.13c0.31,0.32,0.68,0.57,1.1,0.76C62.62,123.53,63.07,123.62,63.56,123.62z"
      />
      <path class="st5"
            d="M69.01,123.98v-7.84h0.81l2.92,6.17l2.91-6.17h0.81v7.84h-0.52v-7.35l-3.21,6.79l-3.22-6.77v7.33H69.01z"/>
      <path class="st5"
            d="M78.33,123.98v-7.84h0.81l2.92,6.17l2.91-6.17h0.81v7.84h-0.52v-7.35l-3.21,6.79l-3.22-6.77v7.33H78.33z"/>
      <path class="st5" d="M90.59,124.1c-0.62,0-1.16-0.13-1.64-0.4c-0.47-0.26-0.84-0.65-1.1-1.16c-0.26-0.51-0.39-1.13-0.39-1.85
			v-4.56h0.52v4.56c0,0.62,0.11,1.15,0.34,1.59c0.22,0.44,0.53,0.77,0.92,1s0.84,0.34,1.35,0.34s0.96-0.11,1.35-0.34
			c0.39-0.23,0.7-0.56,0.92-1c0.23-0.44,0.34-0.97,0.34-1.59v-4.56h0.52v4.56c0,0.72-0.13,1.34-0.39,1.85
			c-0.26,0.51-0.63,0.89-1.1,1.16C91.76,123.97,91.21,124.1,90.59,124.1z"/>
      <path class="st5" d="M95.41,123.98v-7.84h0.56l5.06,6.94v-6.94h0.52v7.84h-0.45l-5.18-7.08v7.08H95.41z"/>
      <path class="st5" d="M103.41,123.98v-7.84h0.52v7.84H103.41z"/>
      <path class="st5" d="M107.96,123.98v-7.36h-2.91v-0.48h6.34v0.48h-2.91v7.36H107.96z"/>
      <path class="st5" d="M114.9,123.98v-3.27l-3.07-4.57h0.62l2.72,4.1l2.73-4.1h0.59l-3.08,4.59v3.25H114.9z"/>
	</g>
</g>
</svg>
